<?xml version="1.0" encoding="utf-8"?>
<!-- Generator: Adobe Illustrator 27.1.0, SVG Export Plug-In . SVG Version: 6.00 Build 0)  -->
<svg version="1.1" id="Layer_1" xmlns="http://www.w3.org/2000/svg" xmlns:xlink="http://www.w3.org/1999/xlink" x="0px" y="0px"
	 viewBox="0 0 88 102.5" style="enable-background:new 0 0 88 102.5;" xml:space="preserve">
<style type="text/css">
	.st0{fill-rule:evenodd;clip-rule:evenodd;fill:#D2226B;}
</style>
<path class="st0" d="M62.4,63.6c-0.1,0-0.2,0-0.5,0v11.8c0,0,0.1,0,0.1,0c0,0,0.1,0,0.3,0c0.1,0,0.2,0,0.3,0c0.8,0,1.2-0.3,1.2-1
	v-9.1c0-0.7-0.1-1.1-0.3-1.4C63.4,63.7,63,63.6,62.4,63.6z"/>
<polygon class="st0" points="79.1,75.3 79.4,75.3 80,66.5 78.5,66.5 "/>
<path class="st0" d="M8.3,49.9H7.5v5.4c0.2,0,0.3,0,0.4,0c1.1,0,1.7-0.5,1.7-1.4v-2.3c0-0.6-0.1-1-0.3-1.3C9,50.1,8.7,49.9,8.3,49.9
	z"/>
<path class="st0" d="M8.9,46.9c0.1-0.1,0.2-0.2,0.3-0.4c0.1-0.2,0.1-0.3,0.1-0.4c0-0.1,0-0.3,0-0.5v-1.8C9.3,43.3,9,43,8.4,43H7.5
	v4.1h0.9C8.5,47.1,8.7,47,8.9,46.9z"/>
<polygon class="st0" points="18.8,43.6 18.2,52.4 19.8,52.4 19.2,43.6 "/>
<path class="st0" d="M29.4,43.5h-0.2V47h1.1c0.6,0,0.9-0.6,0.9-1.7c0-0.7-0.1-1.2-0.3-1.4C30.6,43.6,30.1,43.5,29.4,43.5z"/>
<polygon class="st0" points="51.6,43.6 51,52.4 52.5,52.4 52,43.6 "/>
<path class="st0" d="M62.4,43.4c-0.1,0-0.2,0-0.5,0v11.8c0,0,0.1,0,0.1,0c0,0,0.1,0,0.3,0c0.1,0,0.2,0,0.3,0c0.8,0,1.2-0.3,1.2-1
	v-9.1c0-0.7-0.1-1.1-0.3-1.4C63.4,43.5,63,43.4,62.4,43.4z"/>
<polygon class="st0" points="78.8,43.6 78.2,52.4 79.8,52.4 79.2,43.6 "/>
<path class="st0" d="M0,0v88.1h55.8l-4.1,14.4l16.3-14.4H88V0H0z M35.7,45.4c0-1.8,0.4-3.2,1.3-4.1c0.8-0.9,2.2-1.4,4-1.4
	c0.7,0,1.4,0.1,2,0.3c0.6,0.2,1.2,0.4,1.7,0.8c0.5,0.3,0.9,0.8,1.1,1.3c0.3,0.6,0.4,1.2,0.4,1.9v3.3H42v-2.1c0-1.1-0.3-1.7-1-1.7
	c-0.4,0-0.7,0.1-0.8,0.4c-0.1,0.2-0.2,0.6-0.2,1v8.7c0,0.4,0.1,0.7,0.3,1c0.2,0.3,0.4,0.4,0.7,0.4c0.3,0,0.5-0.1,0.7-0.3
	c0.2-0.2,0.3-0.6,0.3-1.1v-3.2h4.3v3.5c0,1.6-0.5,2.8-1.4,3.5c-1,0.8-2.3,1.1-4,1.1c-1.5,0-2.8-0.4-3.7-1.2c-1-0.8-1.4-2-1.4-3.5
	V45.4z M11.4,58.2c-0.6,0.3-1.4,0.4-2.3,0.4H3.3V40.1h5.8c1.5,0,2.6,0.3,3.4,1c0.7,0.6,1.1,1.7,1.1,3.3v0.2v0.6c0,0.1,0,0.3,0,0.6
	c0,0.3-0.1,0.5-0.1,0.7c-0.1,0.2-0.1,0.4-0.2,0.6c-0.1,0.2-0.2,0.4-0.4,0.6c-0.2,0.1-0.3,0.3-0.6,0.4c-0.2,0.1-0.5,0.2-0.8,0.3
	c0.4,0.1,0.8,0.3,1.1,0.5c0.3,0.2,0.6,0.5,0.7,0.8c0.2,0.3,0.3,0.6,0.4,1c0.1,0.4,0.1,0.7,0.2,1c0,0.3,0,0.6,0,1
	c0,1-0.1,1.8-0.2,2.5c-0.1,0.7-0.4,1.3-0.7,1.9C12.5,57.5,12,57.9,11.4,58.2z M20.4,58.6l-0.3-2.8h-2.2l-0.3,2.8h-4.2l2.2-18.5h6.7
	l2.1,18.5H20.4z M29.2,50.2v8.4h-4.3V40.1h6.6c0.7,0,1.3,0.1,1.7,0.3c0.5,0.2,0.9,0.4,1.1,0.7c0.3,0.3,0.5,0.7,0.7,1.1
	c0.2,0.5,0.3,0.9,0.3,1.4c0,0.5,0.1,1,0.1,1.7c0,0.3,0,0.6,0,0.9c0,0.2-0.1,0.5-0.1,0.8c-0.1,0.3-0.2,0.6-0.3,0.8
	c-0.1,0.2-0.3,0.4-0.6,0.7c-0.3,0.2-0.6,0.4-1,0.5c0.4,0.1,0.7,0.2,1,0.4c0.3,0.2,0.4,0.4,0.6,0.7c0.1,0.3,0.2,0.5,0.2,0.8
	c0,0.2,0.1,0.5,0.1,0.8c0,3.1,0,5.4,0,7h-4.2v-7.2c0-0.3,0-0.5-0.1-0.7c-0.1-0.2-0.2-0.3-0.3-0.4c-0.2-0.1-0.3-0.1-0.5-0.1
	C29.7,50.2,29.5,50.2,29.2,50.2z M47,78.8h-4.2V65.5l-2.2,13.3h-3.9l-2.4-13.3v13.3h-4.1V60.3h6.5l1.8,9.6l1.8-9.6H47V78.8z
	 M57,78.8h-8.9V60.3h8.6v3.6h-4.2v3.6h4V71h-4v4.2H57V78.8z M53.2,58.6l-0.3-2.8h-2.2l-0.3,2.8h-4.2l2.2-18.5h6.7l2.1,18.5H53.2z
	 M67.1,77.4c-0.8,0.9-2,1.4-3.7,1.4h-5.8V60.3h5.9c1.6,0,2.8,0.4,3.5,1.2c0.7,0.8,1.1,1.8,1.1,3.2l0,8.6
	C68.2,75.1,67.8,76.5,67.1,77.4z M67.1,57.2c-0.8,0.9-2,1.4-3.7,1.4h-5.8V40.1h5.9c1.6,0,2.8,0.4,3.5,1.2c0.7,0.8,1.1,1.8,1.1,3.2
	l0,8.6C68.2,54.9,67.8,56.3,67.1,57.2z M73.2,78.8h-4.1V60.3h4.1V78.8z M73.2,58.6h-4.1V40.1h4.1V58.6z M75.7,40.1h6.7l2.1,18.5
	h-4.1l-0.3-2.8h-2.2l-0.3,2.8h-4.2L75.7,40.1z M82.6,78.8h-6.7l-2.1-18.5h4.1l0.3,2.8h2.2l0.3-2.8h4.2L82.6,78.8z"/>
</svg>
